<?xml version="1.0" encoding="UTF-8" standalone="no"?>
<!-- Created with Inkscape (http://www.inkscape.org/) -->

<svg
   xmlns:dc="http://purl.org/dc/elements/1.1/"
   xmlns:cc="http://creativecommons.org/ns#"
   xmlns:rdf="http://www.w3.org/1999/02/22-rdf-syntax-ns#"
   xmlns:svg="http://www.w3.org/2000/svg"
   xmlns="http://www.w3.org/2000/svg"
   xmlns:sodipodi="http://sodipodi.sourceforge.net/DTD/sodipodi-0.dtd"
   xmlns:inkscape="http://www.inkscape.org/namespaces/inkscape"
   width="894.71222mm"
   height="229.04207mm"
   viewBox="0 0 894.71222 229.04207"
   version="1.1"
   id="svg8"
   inkscape:version="0.92.3 (2405546, 2018-03-11)"
   sodipodi:docname="logo.svg">
  <defs
     id="defs2">
    <clipPath
       clipPathUnits="userSpaceOnUse"
       id="clipPath39">
      <path
         style="fill:#000000;stroke-width:0.26458332"
         d="M -351.66363,248.81174 V 133.71799 H 96.011354 543.68634 l -0.0585,75.60469 c -0.0322,41.58258 -0.0908,73.81874 -0.13031,71.63593 -0.22463,-12.41227 -0.59232,-19.61737 -1.13128,-22.16915 -1.32638,-6.2797 -3.51057,-10.57934 -7.28625,-14.34334 -3.61474,-3.60357 -7.80169,-5.72848 -13.89002,-7.0493 -2.42533,-0.52616 -3.53113,-0.60193 -8.85674,-0.60683 -4.55062,-0.004 -6.85284,0.11349 -9.12815,0.46656 -5.98694,0.92903 -10.92184,2.07911 -16.73553,3.90023 l -3.3741,1.05691 0.0668,53.50372 0.0668,53.5037 10.25261,0.0692 10.2526,0.0693 V 333.7461 c 0,-14.09284 0.041,-15.61353 0.42056,-15.61353 0.2313,0 1.96463,0.35681 3.85188,0.79293 4.84688,1.12 7.64942,1.39528 10.62241,1.04333 3.04845,-0.36087 7.10393,-1.69154 10.59516,-3.47642 2.35387,-1.20337 3.05335,-1.73791 5.62544,-4.29881 5.74307,-5.7181 8.04349,-11.3787 8.55401,-21.04853 0.11332,-2.14649 0.22018,13.03403 0.24257,34.46197 l 0.0401,38.29844 H 96.011354 -351.66363 Z m 106.09791,113.38998 c 20.95901,-2.89861 39.44903,-11.92053 53.98691,-26.34207 15.28871,-15.16634 24.54311,-34.295 27.137,-56.09167 0.55778,-4.68709 0.62901,-14.88768 0.13486,-19.31457 -2.04879,-18.35454 -8.30902,-33.89756 -19.50151,-48.41875 -2.79234,-3.62279 -11.39008,-12.32687 -14.92601,-15.1106 -5.74669,-4.52421 -10.37177,-7.49561 -16.40416,-10.53893 -4.35817,-2.19867 -10.13643,-4.61784 -10.63384,-4.45204 -0.24765,0.0825 -3.61839,12.404 -3.64524,13.32487 -0.005,0.15891 0.85478,0.62136 1.90981,1.02767 3.42838,1.32033 10.30105,4.96877 13.96979,7.41605 5.83469,3.89208 11.13817,8.45373 15.20052,13.0743 9.64307,10.96818 15.93054,23.46255 18.65091,37.06284 1.19365,5.96755 1.45775,8.82741 1.45377,15.7427 -0.004,6.91428 -0.27385,9.83827 -1.45411,15.75478 -4.15086,20.80781 -17.05124,39.57219 -35.06881,51.00971 l -2.13075,1.35257 -3.82238,-1.60597 c -5.33777,-2.24266 -15.34245,-5.53291 -21.15259,-6.95647 -12.74988,-3.12391 -23.65007,-4.3134 -37.04167,-4.0422 -9.94878,0.20148 -17.36799,0.99242 -26.78012,2.85498 l -4.15827,0.82289 -1.79485,-1.59618 c -2.4071,-2.14064 -6.3213,-6.55416 -9.07092,-10.22808 -15.22508,-20.34302 -19.70736,-46.15064 -12.27966,-70.70274 1.78482,-5.89963 4.96864,-12.887 8.34768,-18.32026 6.17075,-9.92212 15.56343,-19.27976 25.7601,-25.66405 2.45682,-1.53825 10.85982,-5.83626 11.41039,-5.83626 0.13412,0 1.8105,-3.87721 3.72526,-8.61601 l 3.48139,-8.61602 -0.84186,0.17625 c -1.84306,0.38587 -10.28618,3.31169 -13.27726,4.60101 -16.13265,6.95407 -30.38078,18.78671 -40.34626,33.50636 -8.90614,13.1549 -14.04372,27.66075 -15.63696,44.15064 -0.4532,4.69044 -0.16703,16.25699 0.5143,20.78735 3.41691,22.7199 13.75079,41.91902 30.73037,57.09335 14.5229,12.97887 33.17325,21.00665 53.57813,23.06195 3.61942,0.36457 16.38043,0.12986 19.97604,-0.3674 z m 140.02105,-41.66383 c 3.94281,-0.79089 9.179618,-2.50624 11.849782,-3.88141 4.434859,-2.28404 10.160397,-7.13967 12.75977,-10.82111 2.638848,-3.73732 4.779883,-8.97155 5.630227,-13.76426 0.540994,-3.04917 0.550836,-8.80364 0.02011,-11.78587 -0.728901,-4.0962 -2.435675,-8.42613 -4.688496,-11.89434 -1.473253,-2.26804 -6.226255,-6.99515 -8.59812,-8.55127 -4.628885,-3.03691 -7.947221,-4.26966 -18.336123,-6.8118 -4.1564,-1.01708 -8.50965,-2.16035 -9.67382,-2.5406 -4.37008,-1.42738 -7.30132,-3.28544 -8.41707,-5.33544 -0.64942,-1.19319 -0.71106,-1.55876 -0.71106,-4.21682 0,-5.19496 1.25093,-7.29028 5.64798,-9.46049 5.35055,-2.64081 11.27014,-2.63862 16.70932,0.006 2.89252,1.40649 4.837234,3.00432 7.166115,5.88785 0.969621,1.20055 1.92396,2.18281 2.120754,2.18281 0.362921,0 17.114941,-12.28817 17.238766,-12.64521 0.143378,-0.41345 -4.416478,-6.13306 -6.809925,-8.54196 -7.069376,-7.11501 -14.921926,-10.09112 -27.66345,-10.48444 -4.10604,-0.12675 -5.54904,-0.07 -7.80521,0.30724 -10.03153,1.67705 -19.16965,7.83792 -24.70635,16.65685 -1.52513,2.42924 -2.644,5.04273 -3.6534,8.53366 -0.5211,1.80216 -0.59774,2.66015 -0.58697,6.57074 0.04,14.53599 5.88838,24.54961 17.70147,30.30858 4.14959,2.02298 7.94377,3.13576 15.66548,4.59446 6.89997,1.3035 9.55739,2.06317 12.38398,3.54023 3.59387,1.87799 5.417413,4.42399 5.638737,7.87271 0.28012,4.36483 -2.09994,8.59062 -6.007777,10.66675 -6.13452,3.25914 -16.36264,1.93318 -23.74168,-3.07784 -2.07826,-1.41132 -4.65411,-4.20172 -5.27731,-5.71688 -0.27655,-0.67236 -0.59686,-1.22293 -0.7118,-1.22349 -0.93441,-0.004 -3.9789,2.25753 -9.05144,6.72497 -1.60073,1.40975 -3.90112,3.30089 -5.11198,4.20248 -2.06601,1.53832 -2.1919,1.68797 -2.04449,2.43012 0.39987,2.01319 5.05703,7.92761 8.22422,10.44446 6.6694,5.29992 14.15666,8.95119 20.89267,10.1886 3.08884,0.56742 10.22926,0.38031 13.94709,-0.36547 z m 252.10637,0.0156 c 3.8948,-0.79229 10.84871,-2.74587 13.64604,-3.8336 1.29048,-0.50181 2.58445,-0.95644 2.87549,-1.01028 0.52517,-0.0972 0.52917,-0.30697 0.52917,-27.74323 v -27.64527 l -0.73507,-2.64583 c -2.75698,-9.92358 -9.69137,-16.58611 -20.06928,-19.28252 -10.51131,-2.73107 -19.14667,-0.90641 -29.06416,6.14129 -1.70656,1.21273 -2.87319,2.32102 -4.22428,4.01299 -1.02661,1.28566 -1.86357,2.43671 -1.85989,2.5579 0.004,0.12119 2.1772,2.4695 4.83005,5.21848 l 4.82338,4.99813 1.71836,-1.45317 c 2.15329,-1.82095 3.60656,-2.66329 6.27536,-3.63728 9.86023,-3.59854 17.48139,0.90944 18.48088,10.93162 0.16873,1.69193 0.14738,1.8052 -0.31594,1.67656 -0.27331,-0.0759 -1.86287,-0.51829 -3.53239,-0.98317 l -3.03546,-0.84518 -5.5635,0.1247 c -4.50038,0.10088 -5.94665,0.22844 -7.56878,0.66759 -11.6546,3.15527 -18.77825,13.25621 -18.76102,26.60214 0.007,5.06153 1.48069,9.99392 4.24519,14.20402 4.29728,6.54439 10.80963,10.80336 18.83224,12.31599 1.40235,0.26439 3.7827,0.33996 8.80139,0.27937 5.76512,-0.0696 7.3315,-0.17508 9.67222,-0.65125 z m -14.29113,-16.74508 c -3.33756,-0.5533 -6.2485,-2.69888 -7.5838,-5.58988 -0.67022,-1.45108 -0.76187,-1.95188 -0.76187,-4.16306 0,-2.16887 0.0965,-2.71944 0.7039,-4.0151 1.38287,-2.94992 3.88588,-4.92562 6.95148,-5.48698 3.36523,-0.61627 8.9518,-0.26578 10.79931,0.67751 l 0.7276,0.37148 v 8.83351 8.83349 l -0.99219,0.15631 c -4.22351,0.66543 -7.39528,0.78872 -9.84443,0.38272 z m -163.060188,16.31151 c 8.253464,-1.5894 15.513419,-6.34495 19.335907,-12.66576 1.8573497,-3.07131 3.3430116,-7.87146 4.0650066,-13.1341 0.4457962,-3.24917 0.3923771,-28.58651 -0.06776,-32.14687 -0.8622771,-6.67207 -3.6071716,-12.50822 -7.9093486,-16.81681 -4.684713,-4.69167 -10.895277,-7.43173 -18.600366,-8.20634 -8.227986,-0.82718 -17.347301,1.60121 -23.013194,6.1282 -5.275448,4.21504 -8.985832,11.20925 -10.0017,18.85362 -0.189441,1.42552 -0.252068,7.59123 -0.184547,18.16528 0.09665,15.13882 0.132186,16.13024 0.654791,18.27313 2.330424,9.55553 8.352923,16.44528 17.415087,19.92291 5.66801,2.17512 12.367154,2.77043 18.306124,1.62674 z m -8.232352,-19.74101 c -3.140604,-0.45842 -5.707247,-2.14588 -6.897846,-4.53509 l -0.679238,-1.36308 V 279.3711 264.26147 l 0.683657,-1.37192 c 0.858731,-1.72322 2.634165,-3.30308 4.569089,-4.06576 2.120053,-0.83565 6.15196,-0.83892 8.261985,-0.007 1.831896,0.7225 3.46292,2.09347 4.412642,3.70905 l 0.725752,1.23456 0.07562,15.21354 c 0.08435,16.97345 0.128535,16.50286 -1.74453,18.57613 -2.115026,2.34106 -5.589537,3.3858 -9.407128,2.82856 z m 379.64063,19.73654 c 4.24902,-0.55719 7.79618,-1.28228 11.71432,-2.39453 3.30134,-0.93716 7.06575,-2.32154 7.66728,-2.81961 0.26355,-0.21823 0.31787,-8.10345 0.26461,-38.40761 l -0.0671,-38.13302 h -9.92187 -9.92188 l -0.0672,31.78916 -0.0672,31.78918 -1.65259,0.2811 c -0.90892,0.15457 -2.54555,0.35613 -3.63696,0.44786 -6.57577,0.55271 -12.50643,-3.75531 -13.49563,-9.80313 -0.15745,-0.96266 -0.26024,-12.02764 -0.26117,-28.11198 l -0.003,-26.52448 h -10.19466 -10.19517 l 0.0916,29.56719 c 0.10009,32.31404 0.004,30.25756 1.64669,35.15174 3.40828,10.1531 11.60978,16.33104 23.30135,17.55222 3.16323,0.33039 10.87578,0.13023 14.79757,-0.38409 z M 38.512692,319.82873 c 9.464122,-1.67693 18.104853,-7.92737 21.913262,-15.85137 1.0364,-2.15641 2.1408,-5.88383 1.834182,-6.19046 -0.0676,-0.0676 -0.937051,-0.32964 -1.932181,-0.58235 -0.9951,-0.2527 -3.877759,-1.2532 -6.405901,-2.22329 -5.271929,-2.0229 -8.293632,-3.04244 -9.017346,-3.04244 -0.277046,0 -0.568299,0.20836 -0.647224,0.46304 -0.98978,3.1931 -3.090836,5.7141 -5.852451,7.02223 -1.707938,0.80899 -1.942624,0.8491 -4.967632,0.8491 -2.86713,0 -3.317293,-0.0667 -4.642273,-0.68821 -1.8474,-0.86648 -3.292501,-2.12611 -4.038414,-3.52007 -0.578114,-1.08034 -0.579728,-1.12792 -0.579728,-16.95839 0,-15.8006 0.0026,-15.88003 0.576156,-16.95137 2.658639,-4.96694 11.235901,-6.14954 16.191441,-2.23241 1.394116,1.10199 2.679277,3.28512 2.679277,4.55137 0,0.93208 0.247094,0.93877 3.476754,0.0943 3.810291,-0.9963 13.904572,-4.51717 14.471761,-5.04774 0.159621,-0.14931 -1.793271,-5.6683 -2.506239,-7.08282 -3.146642,-6.24284 -8.91432,-11.04295 -15.92604,-13.25435 -8.774721,-2.76743 -19.362711,-1.60136 -26.768319,2.94805 -2.087721,1.28253 -6.310471,5.18618 -7.8079053,7.21791 -2.2325021,3.029 -4.423569,8.82004 -4.8878599,12.91868 -0.37637,3.32236 -0.399415,27.22042 -0.02987,30.99362 0.5315741,5.42811 1.431766,9.38863 2.736188,12.03854 0.286544,0.58208 1.475396,2.32955 2.641918,3.88324 1.6616352,2.21316 2.6256442,3.2018 4.4512962,4.56512 7.499535,5.60033 16.039941,7.67429 25.037148,6.0801 z m 353.699718,0.16044 c 2.78172,-0.45029 2.51354,2.89449 2.51354,-31.35063 v -29.96457 l 1.65362,-0.81398 c 0.90953,-0.44768 2.18945,-0.93736 2.84427,-1.08818 1.81308,-0.41757 5.28312,-0.34811 6.69824,0.13407 1.68873,0.57541 3.66808,2.41694 4.4445,4.13505 l 0.63122,1.39685 0.0448,28.14949 c 0.0516,32.40088 -0.28385,28.98569 2.88864,29.4073 1.04486,0.13888 4.87976,0.1605 8.94485,0.0504 l 7.11586,-0.19264 0.52456,-0.70347 c 0.51597,-0.69194 0.52375,-1.1583 0.47556,-28.48973 -0.034,-19.27931 0.0389,-28.11246 0.23792,-28.85169 0.80502,-2.98958 4.56517,-4.76213 9.49645,-4.47666 3.27946,0.18984 5.1911,1.63518 6.46287,4.88631 0.89149,2.27907 0.9824,5.20607 0.9824,31.633 v 26.13453 h 9.51 9.50997 l 0.4119,-0.58803 c 0.36656,-0.52332 0.41172,-3.69002 0.41032,-28.77344 -0.003,-30.58769 -0.0124,-30.84432 -1.46849,-35.46254 -1.72747,-5.4785 -4.65135,-9.68134 -8.82044,-12.67858 -4.43492,-3.18834 -8.28826,-4.85798 -13.18075,-5.71115 -8.16025,-1.42304 -16.7055,1.5587 -21.67234,7.56226 -0.95433,1.15353 -1.8198,2.09732 -1.92328,2.09732 -0.10345,0 -0.45776,-0.55504 -0.78735,-1.23342 -1.8973,-3.90521 -7.03175,-7.50729 -12.60308,-8.84172 -2.16136,-0.51768 -2.86991,-0.55721 -7.67292,-0.4281 -5.90764,0.15881 -8.83568,0.58739 -12.06503,1.76596 -2.67991,0.97805 -4.07617,1.75408 -9.16778,5.09542 l -4.0349,2.64788 v 37.26848 37.26847 l 5.22552,0.0777 c 2.87404,0.0427 6.47568,0.10409 8.00365,0.13637 1.52797,0.0323 3.4925,-0.057 4.36562,-0.19831 z M 93.227996,319.36833 c 0.35832,-0.54687 0.396258,-5.14562 0.336809,-40.81198 l -0.067,-40.19565 H 83.311354 73.124904 l -0.067,40.81197 -0.067,40.81198 h 9.916599 9.91661 z m 113.048464,0.30562 2.71198,-0.31372 v -9.57162 -9.57162 l -2.05052,-0.17216 c -2.64409,-0.22201 -3.58719,-0.49541 -5.36144,-1.55443 -1.80313,-1.07622 -2.98275,-2.76717 -3.39545,-4.86727 -0.70583,-3.59177 -0.79594,-10.04287 -0.64262,-46.00616 0.11801,-27.68161 0.081,-37.18955 -0.14642,-37.61447 -0.61007,-1.13995 -3.88334,-1.34818 -15.22299,-0.9684 l -5.20869,0.17445 0.0832,43.54795 c 0.0915,47.89097 -0.0355,44.15886 1.67912,49.36877 1.39946,4.25239 3.73282,7.98463 6.83308,10.92957 2.42771,2.30608 3.81619,3.25541 6.89305,4.71294 4.5556,2.158 7.79288,2.60427 13.82771,1.90617 z m 32.6099,-16.87042 v -17.18111 l 11.04635,0.0494 c 12.28122,0.0549 14.36751,-0.13084 19.38074,-1.72509 6.28621,-1.99906 12.89262,-6.33709 15.96641,-10.48419 4.70197,-6.34378 7.05033,-11.24483 8.42809,-17.58945 0.49684,-2.28804 0.58714,-3.53591 0.59701,-8.25193 0.01,-4.73488 -0.0757,-5.9866 -0.57917,-8.46739 -1.69331,-8.34395 -5.18835,-15.07899 -10.64041,-20.50449 -4.00455,-3.98505 -7.9629,-6.46953 -12.84335,-8.06123 -4.45995,-1.45456 -4.64582,-1.46377 -29.54071,-1.46377 h -22.98658 l 0.0686,55.05468 c 0.0675,54.15162 0.077,55.06083 0.58218,55.43019 0.42212,0.30867 2.2954,0.37555 10.51719,0.37555 h 10.00361 z m 0,-54.74423 v -15.83369 l 4.01082,-0.1736 c 15.74027,-0.68129 21.91478,0.47908 25.99405,4.88508 2.88433,3.11534 4.37925,6.9545 4.38705,11.26632 0.008,4.31967 -1.30347,7.71962 -4.04836,10.497 -1.89214,1.91451 -3.73555,3.03231 -6.53106,3.96028 -2.99591,0.99448 -5.92715,1.23074 -15.27969,1.23155 l -8.53281,7.9e-4 z m -471.88437,67.05011 c 5.52066,-0.60005 10.66395,-1.36364 15.47813,-2.29793 4.6042,-0.89353 12.88719,-2.83226 13.49375,-3.15833 0.31482,-0.16926 0.59549,-2.3259 1.35761,-10.4317 0.52841,-5.6201 1.00466,-10.25261 1.05833,-10.29449 0.0537,-0.0419 2.24072,0.13065 4.8601,0.38341 2.61937,0.25275 4.84068,0.382 4.93623,0.28723 0.1822,-0.18071 2.37761,-23.10916 2.22713,-23.25966 -0.0477,-0.0477 -2.21472,-0.27619 -4.81565,-0.50781 -2.60093,-0.23164 -4.80921,-0.49435 -4.9073,-0.58383 -0.0981,-0.0895 0.34694,-5.69909 0.98894,-12.46581 0.642,-6.76672 1.16873,-12.39189 1.17052,-12.50038 0.004,-0.27177 -6.34117,-3.30114 -11.7707,-5.61925 -7.27234,-3.10488 -15.96993,-6.01336 -24.17938,-8.0856 l -1.16062,-0.29296 0.16229,-1.76601 c 0.0893,-0.9713 0.23986,-2.60963 0.33467,-3.64073 l 0.1724,-1.87473 -3.93656,-0.83639 c -2.16511,-0.46002 -4.88905,-0.99164 -6.05322,-1.18138 -1.5642,-0.25495 -2.10337,-0.44508 -2.06573,-0.72847 0.028,-0.21091 1.85033,-8.46319 4.04959,-18.3384 2.19925,-9.87521 3.93985,-18.01372 3.86798,-18.08559 -0.0719,-0.0719 -4.0373,-0.0236 -8.81208,0.10722 -4.77479,0.13083 -8.72218,0.21172 -8.77199,0.17975 -0.0498,-0.032 2.25057,-10.13919 5.11195,-22.46048 2.86138,-12.3213 5.16236,-22.4425 5.1133,-22.49157 -0.0998,-0.0999 -28.00941,57.15918 -28.18131,57.81657 -0.0976,0.37338 0.95835,0.33632 9.84589,-0.3455 5.47539,-0.42005 10.0047,-0.71429 10.06513,-0.65386 0.0871,0.0871 -6.93707,19.5523 -8.11906,22.49932 l -0.29183,0.72761 -3.73821,0.002 c -2.05602,0.001 -4.34837,0.0756 -5.0941,0.16522 l -1.35591,0.16291 -0.15449,1.62072 c -0.085,0.8914 -0.23334,2.47389 -0.32972,3.51666 l -0.17526,1.89594 -2.5477,0.16979 c -11.2403,0.74906 -22.60516,2.6381 -33.10708,5.50288 l -4.10104,1.11871 -1.18205,12.65541 -1.18203,12.65542 -0.67003,-0.13052 c -1.12461,-0.21906 -8.7263,-0.80809 -8.84872,-0.68566 -0.0631,0.0631 -0.60185,5.28515 -1.19727,11.60458 -0.74901,7.94975 -0.99568,11.54359 -0.80066,11.66416 0.15505,0.0958 2.16784,0.32697 4.47284,0.51366 2.30502,0.18669 4.33319,0.42735 4.50707,0.53483 0.24114,0.14901 0.087,2.62821 -0.64942,10.44562 -0.53107,5.63763 -0.92826,10.27808 -0.88265,10.31213 0.32287,0.24101 8.08776,3.78428 10.67128,4.86952 15.32443,6.43732 32.96563,10.6485 49.33977,11.77804 3.90598,0.26945 22.02323,-0.0625 25.79687,-0.47265 z m -24.73854,-14.07316 c -16.40536,-1.42322 -28.92753,-4.39878 -42.64329,-10.13301 l -2.02976,-0.8486 0.14034,-1.373 c 0.0772,-0.75518 1.10964,-11.72888 2.29433,-24.38606 l 2.154,-23.01303 3.04271,-0.72597 c 15.16846,-3.61909 32.39554,-4.16875 48.0617,-1.53347 10.01364,1.68444 20.35079,4.7165 30.18882,8.85491 2.44941,1.03035 2.97657,1.35046 2.97657,1.80751 0,0.67217 -4.16979,45.63051 -4.37652,47.18729 l -0.14574,1.09752 -3.62585,0.67307 c -10.18023,1.88971 -14.78777,2.32275 -25.71856,2.41723 -5.02047,0.0434 -9.66391,0.0324 -10.31875,-0.0243 z m 26.88138,-25.47657 c 2.08005,-0.94464 3.08343,-3.61074 2.11139,-5.61017 -0.73937,-1.52085 -7.56548,-8.7462 -8.61985,-9.12401 -1.13599,-0.40706 -3.4273,-0.46426 -4.362,-0.10889 -0.38075,0.14476 -2.64061,1.75148 -5.02189,3.57047 -3.81773,2.91626 -4.38291,3.44686 -4.78049,4.48789 -0.80558,2.10939 0.10722,4.28802 2.25018,5.37064 2.22353,1.12329 3.93285,0.71888 7.04897,-1.66772 1.0349,-0.79264 1.9874,-1.44021 2.11666,-1.43907 0.12926,0 1.14735,0.99296 2.26241,2.20406 1.29672,1.40838 2.34562,2.30375 2.91041,2.48444 1.36372,0.43624 2.89267,0.37348 4.08421,-0.16764 z m -37.85064,-3.43276 c 1.34081,-0.60904 2.4283,-1.88031 2.65859,-3.10787 0.33986,-1.81155 -0.23373,-2.80967 -4.02548,-7.00507 -1.96347,-2.17251 -3.83087,-4.12017 -4.14972,-4.32814 -0.31888,-0.20796 -1.1698,-0.50977 -1.89098,-0.67068 -2.306,-0.51453 -3.23337,-0.10446 -7.95853,3.51918 -4.92371,3.77593 -5.50961,4.48185 -5.35186,6.44842 0.23849,2.97307 3.13624,4.89916 6.11563,4.06498 0.63696,-0.17833 2.09695,-1.06238 3.34555,-2.02581 l 2.21538,-1.70937 1.99208,2.16493 c 2.82472,3.06978 4.63013,3.74833 7.04934,2.64943 z M 84.482006,231.86444 c 6.91115,-0.96125 9.52201,-4.00284 10.262209,-11.95525 0.252891,-2.71688 0.231769,-3.31732 -0.16854,-4.79626 -0.795179,-2.93762 -3.598889,-6.49479 -6.141479,-7.79192 -3.348331,-1.70819 -7.242972,-1.82738 -10.323092,-0.31592 -2.44134,1.19799 -4.854038,3.61831 -5.98297,6.00184 l -0.855319,1.80585 v 4.37048 4.37047 l 0.890961,1.81053 c 1.43873,2.92362 4.507809,5.71588 7.178828,6.53131 0.97055,0.2963 2.86793,0.2848 5.139402,-0.0311 z m 422.270274,70.64961 c -0.59566,-0.11811 -1.51839,-0.39663 -2.05052,-0.61896 l -0.96748,-0.40426 v -23.52064 -23.52063 l 2.87401,-0.6031 c 8.05045,-1.68935 14.24178,1.05622 15.77004,6.99327 0.55962,2.17402 0.59947,31.69689 0.046,34.04853 -0.64246,2.72957 -2.65938,5.28132 -5.19803,6.57646 -2.26391,1.15495 -7.36401,1.66592 -10.47398,1.04933 z"
         id="path41"
         inkscape:connector-curvature="0" />
    </clipPath>
  </defs>
  <sodipodi:namedview
     id="base"
     pagecolor="#ffffff"
     bordercolor="#666666"
     borderopacity="1.0"
     inkscape:pageopacity="0.0"
     inkscape:pageshadow="2"
     inkscape:zoom="0.2192031"
     inkscape:cx="1793.4471"
     inkscape:cy="1056.5429"
     inkscape:document-units="mm"
     inkscape:current-layer="layer1"
     showgrid="false"
     fit-margin-top="0"
     fit-margin-left="0"
     fit-margin-right="0"
     fit-margin-bottom="0"
     inkscape:window-width="1366"
     inkscape:window-height="705"
     inkscape:window-x="-8"
     inkscape:window-y="-8"
     inkscape:window-maximized="1" />
  <metadata
     id="metadata5">
    <rdf:RDF>
      <cc:Work
         rdf:about="">
        <dc:format>image/svg+xml</dc:format>
        <dc:type
           rdf:resource="http://purl.org/dc/dcmitype/StillImage" />
        <dc:title></dc:title>
      </cc:Work>
    </rdf:RDF>
  </metadata>
  <g
     inkscape:label="Camada 1"
     inkscape:groupmode="layer"
     id="layer1"
     transform="translate(368.68287,-199.33491)">
    <path
       style="fill:#000000;stroke-width:0.26458332"
       d="m -285.73654,428.05091 c -18.13651,-2.15518 -34.28384,-8.86709 -48.42462,-20.1285 -3.73405,-2.97372 -11.0058,-10.24424 -13.98997,-13.98762 -11.57166,-14.5156 -18.61177,-31.73719 -20.28441,-49.61989 -0.49972,-5.34259 -0.19954,-19.04616 0.51848,-23.66969 2.2023,-14.1812 6.83738,-26.30953 14.48962,-37.91414 11.88001,-18.01602 30.17937,-31.70104 50.6509,-37.87885 1.94721,-0.58762 3.98686,-1.06841 4.53257,-1.06843 0.86484,-3e-5 0.99219,0.0797 0.99219,0.62123 0,0.8588 -6.73647,17.44695 -7.18111,17.68304 -0.19774,0.10499 -1.87995,0.904 -3.73824,1.77558 -14.88562,6.98161 -27.5151,18.88173 -35.61564,33.55877 -4.70753,8.52939 -7.9909,19.01073 -9.18902,29.33369 -0.58232,5.01722 -0.38556,14.39912 0.40454,19.28911 2.71947,16.83106 10.20136,31.60828 22.15491,43.75737 2.94259,2.99074 3.28866,3.26211 3.97262,3.11514 6.28894,-1.35134 15.18307,-2.60603 21.98387,-3.10126 6.41847,-0.46738 21.94004,-0.17759 27.61809,0.51565 13.81864,1.68711 25.78129,4.77599 38.41344,9.91873 2.01181,0.81904 3.76162,1.48916 3.88846,1.48916 0.12684,0 1.50203,-0.85018 3.05599,-1.88929 16.69083,-11.16093 28.60466,-28.34673 33.17303,-47.85237 1.42781,-6.09638 2.29891,-14.7359 2.01412,-19.97605 -0.7362,-13.54615 -4.35493,-25.71974 -10.95362,-36.84851 -8.87916,-14.97483 -22.4421,-26.7001 -38.34155,-33.14659 -1.20055,-0.48677 -2.1858,-1.01044 -2.18945,-1.16371 -0.004,-0.15328 0.79783,-3.52314 1.78107,-7.48858 l 1.7877,-7.2099 h 0.74741 c 1.69491,0 11.9909,4.69545 17.1511,7.82171 7.03491,4.26203 12.0122,8.17048 17.98999,14.12678 12.29418,12.25 20.54322,26.72492 24.69861,43.33966 1.74946,6.99495 2.47313,12.44325 2.69697,20.30456 0.6606,23.20142 -6.16235,43.8342 -20.51731,62.04479 -2.53281,3.21312 -10.78362,11.47136 -14.04974,14.0624 -13.71507,10.8803 -28.99829,17.46831 -46.30208,19.95904 -4.25481,0.61244 -19.48024,0.7568 -23.93892,0.22697 z m 750.81483,-67.23112 0.0668,-54.14938 2.24896,-0.76848 c 5.603,-1.91456 14.3469,-3.83143 20.3395,-4.45889 4.36589,-0.45714 13.77892,-0.18046 16.83446,0.49481 9.61509,2.12493 15.87045,7.16462 19.16742,15.44243 1.76017,4.41923 1.81462,4.96456 2.13572,21.38889 0.20722,10.59871 0.21063,15.94183 0.0116,18.36082 -0.15428,1.87652 -0.28051,4.25815 -0.28051,5.29251 0,3.01239 -1.37435,7.0831 -3.61831,10.71715 -0.76012,1.23101 -2.32429,3.0893 -4.03686,4.79588 -2.31846,2.31039 -3.20249,2.99503 -5.17712,4.00938 -8.12734,4.17496 -13.76834,4.84663 -22.79375,2.71406 -1.50371,-0.35533 -2.85411,-0.64605 -3.00085,-0.64605 -0.17624,0 -0.26676,5.25155 -0.26676,15.47812 v 15.47813 h -10.84853 -10.84855 z m 33.5947,5.25823 c 2.23195,-1.09944 4.01212,-2.82168 4.92104,-4.76097 l 0.70938,-1.51351 0.0719,-16.44487 c 0.0704,-16.0883 0.0601,-16.47671 -0.47723,-17.91273 -1.06212,-2.83876 -3.93428,-5.13436 -7.66652,-6.12753 -1.97749,-0.52623 -3.06101,-0.49271 -6.54113,0.20232 l -2.98077,0.59531 v 22.95261 c 0,12.62393 0.0338,22.9526 0.0758,22.9526 0.042,0 0.72657,0.23952 1.52135,0.53225 1.22912,0.45273 1.97974,0.52191 5.02354,0.46303 3.44456,-0.0667 3.64453,-0.10177 5.34318,-0.93851 z m -633.63596,20.83604 c -7.53693,-0.61953 -15.37519,-4.1066 -23.57772,-10.4892 -3.68159,-2.86474 -8.54133,-9.44325 -8.53265,-11.55046 0.003,-0.73974 0.25788,-1.02699 2.18281,-2.46036 1.19865,-0.89256 3.8138,-3.0489 5.81145,-4.79188 5.73586,-5.00464 7.77061,-6.41757 9.24191,-6.41757 0.57395,0 0.76822,0.17335 1.0078,0.89929 0.81273,2.46258 3.92714,5.50475 7.74211,7.56252 9.61479,5.18615 20.0502,4.40872 24.21442,-1.80398 2.8214,-4.20932 2.6571,-8.34328 -0.45531,-11.45569 -2.54958,-2.54959 -6.35899,-4.11248 -13.13897,-5.39055 -8.12238,-1.53113 -9.35854,-1.81403 -12.66488,-2.89834 -12.81778,-4.20359 -20.20962,-12.37254 -22.52246,-24.89028 -0.37779,-2.04469 -0.48596,-3.91345 -0.48189,-8.32506 0.005,-5.40401 0.0404,-5.80197 0.70818,-7.9564 1.60367,-5.17391 4.06464,-9.31267 7.96072,-13.38804 2.99257,-3.13028 6.05714,-5.4466 9.67924,-7.31592 5.89705,-3.0434 9.55402,-3.88339 16.90672,-3.88339 17.49806,0 26.15425,4.04686 35.566788,16.62785 2.561749,3.42405 3.016832,2.76243 -6.943568,10.09507 -5.65923,4.1662 -8.70111,6.24436 -9.21936,6.29849 -0.6644,0.0694 -0.97313,-0.15441 -2.18989,-1.5875 -4.42137,-5.20747 -7.94054,-7.43628 -13.16495,-8.33786 -3.37973,-0.58323 -6.97668,0.0519 -10.48464,1.85121 -3.86636,1.98319 -5.42195,4.54228 -5.41543,8.90885 0.005,3.21522 1.50457,5.26466 5.21147,7.12151 2.47139,1.23796 4.98727,2.00891 12.67217,3.88317 10.98499,2.67913 14.84778,4.10065 19.50094,7.17641 2.70134,1.78559 6.705541,5.8461 8.514947,8.63463 8.38954,12.92954 6.278774,32.28285 -4.653757,42.66901 -2.39522,2.27553 -6.60772,5.34412 -9.15533,6.66921 -4.15447,2.16086 -11.16811,4.04721 -16.87948,4.53981 -3.46234,0.29863 -3.87099,0.29893 -7.44139,0.005 z m 243.60188,-0.53922 c -10.185453,-2.18831 -18.301103,-9.83016 -21.053563,-19.82442 -0.68439,-2.48505 -0.85669,-10.14837 -0.30062,-13.37067 1.93768,-11.22824 9.10776,-18.97882 19.553353,-21.13642 1.49143,-0.30806 3.5787,-0.41791 7.94088,-0.41791 5.54646,0 6.05629,0.0415 8.12758,0.66146 1.21544,0.3638 2.30799,0.66146 2.42787,0.66146 0.61867,0 -0.19765,-3.76105 -1.28799,-5.93424 -1.95202,-3.89054 -5.70802,-6.2366 -9.98466,-6.2366 -3.61596,0 -8.73591,2.00807 -11.78044,4.62034 -2.664123,2.28588 -2.446213,2.38052 -8.152643,-3.54107 -3.58597,-3.7212 -4.82422,-5.17284 -4.82422,-5.65559 0,-0.9398 3.41074,-5.04984 5.52206,-6.65425 4.14803,-3.15211 8.719053,-5.50843 13.410433,-6.91296 2.05775,-0.61607 2.97048,-0.72511 6.99667,-0.8359 3.49052,-0.0961 5.21634,-0.0255 7.01146,0.28686 7.3737,1.28282 13.11426,4.09993 17.25753,8.46891 3.02093,3.18551 4.90156,6.4897 6.34603,11.1497 l 0.73811,2.38125 0.0729,28.61863 0.0729,28.61863 -0.83177,0.18269 c -0.45747,0.10048 -1.66661,0.52695 -2.68698,0.94772 -1.99588,0.82304 -8.81335,2.78251 -12.89902,3.70745 -2.22115,0.50283 -3.48305,0.57959 -10.84791,0.65986 -7.58026,0.0826 -8.56002,0.0423 -10.82805,-0.44493 z m 13.88621,-18.27933 2.49809,-0.307 v -8.26323 -8.26324 l -1.04614,-0.41857 c -2.91407,-1.16598 -9.0024,-1.08308 -11.70054,0.15932 -3.55721,1.63798 -6.02083,6.13258 -5.24907,9.57636 0.79788,3.5602 3.20961,6.15681 6.77665,7.29607 1.84909,0.59058 5.04996,0.67143 8.72101,0.22029 z m -182.577955,18.02035 c -11.473762,-1.78896 -20.014035,-8.4316 -23.546249,-18.31435 -1.697699,-4.74994 -1.762416,-5.7252 -1.663277,-25.06359 l 0.08885,-17.33021 0.693156,-2.53306 c 3.820927,-13.96291 14.191588,-21.41173 29.810577,-21.41173 14.658445,0 25.610045,7.55025 29.251135,20.16633 1.17616,4.07529 1.29162,5.98941 1.32128,21.90242 0.0246,13.15557 -0.0288,15.30652 -0.44487,17.92942 -0.87268,5.50209 -2.46716,9.87799 -4.77949,13.11686 -1.29976,1.82058 -4.72355,5.19657 -6.52999,6.4388 -2.79794,1.92409 -7.082525,3.75263 -10.839661,4.62608 -2.594716,0.60322 -10.688664,0.88976 -13.361458,0.47303 z m 8.37266,-21.68332 c 2.248323,-0.70918 3.88075,-1.96091 4.856506,-3.72397 l 0.79375,-1.43419 0.07504,-14.12303 c 0.08498,-15.98998 0.08864,-15.95363 -1.815862,-18.11724 -2.740871,-3.11379 -7.086203,-4.02832 -10.972402,-2.30927 -1.813825,0.80235 -3.715703,2.74606 -4.352634,4.44837 -0.530834,1.41882 -0.544089,1.86242 -0.471408,15.78052 0.07379,14.13272 0.08234,14.33477 0.650927,15.39703 0.590947,1.10403 2.202736,2.72141 3.303032,3.31448 1.218592,0.65684 3.552905,1.26947 4.890347,1.28345 0.748638,0.008 2.117857,-0.22444 3.042708,-0.51615 z m 357.833155,21.5678 c -7.08403,-1.01265 -12.09767,-3.48177 -16.33818,-8.04628 -2.99296,-3.22163 -4.83372,-6.71953 -6.26136,-11.8981 l -0.70252,-2.54825 -0.0755,-30.36094 -0.0755,-30.36093 h 10.85067 10.85067 l 0.0709,27.8531 0.0709,27.85311 0.90721,1.84637 c 1.85316,3.77167 5.68999,6.38942 9.77532,6.66943 1.21899,0.0836 3.1882,-2.6e-4 4.53366,-0.19323 l 2.3786,-0.34093 v -31.84393 -31.84392 h 10.58334 10.58333 v 38.89708 38.89709 l -1.38906,0.61429 c -3.85829,1.70625 -10.67864,3.50647 -16.7349,4.41714 -4.87574,0.73315 -15.1502,0.94315 -19.02751,0.3889 z m -294.503733,-0.0369 c -3.5537003,-0.38577 -8.2362403,-1.75959 -11.37708032,-3.33793 -2.55634998,-1.28462 -6.09597998,-3.83436 -7.64367998,-5.50606 -1.89177,-2.04333 -4.4644797,-5.91624 -5.1536397,-7.75817 -2.04046,-5.45366 -2.69306,-15.59648 -2.1981,-34.16401 0.2458,-9.22103 0.29964,-9.92787 0.92739,-12.17083 1.42425,-5.08906 3.24366,-8.40526 6.4772597,-11.80607 3.99566,-4.20227 7.86037998,-6.43834 14.01466,-8.10869 2.44417,-0.66337 2.8874,-0.69809 8.9219403,-0.69884 6.12238,-7.9e-4 6.44483,0.0254 8.99583,0.73074 8.01423,2.21578 14.11089,7.0179 17.53696,13.81322 0.89296,1.77112 2.70367,6.978 2.70367,7.77471 0,0.40398 -0.68305,0.77193 -3.37344,1.81724 -6.31161,2.4523 -12.55419,4.28316 -14.6019,4.28253 l -1.20695,-2.6e-4 -0.44702,-1.52099 c -1.35133,-4.59806 -7.04527,-7.06712 -12.38528,-5.37061 -3.0255103,0.9612 -4.9893003,2.97077 -5.5520403,5.68146 -0.19616,0.94492 -0.26567,5.99623 -0.21362,15.52707 0.0764,13.99159 0.0827,14.13694 0.66138,15.21876 1.7736,3.31578 6.4498803,5.23113 10.3390403,4.23477 2.14421,-0.54932 3.54637,-1.28176 4.97533,-2.59892 1.17877,-1.08656 3.01908,-4.32409 3.01908,-5.31128 0,-0.48273 0.11687,-0.5122 1.37112,-0.34582 1.66966,0.22149 4.57005,1.16412 10.06579,3.27141 2.28848,0.8775 4.99716,1.81088 6.01927,2.07418 l 1.8584,0.47874 v 0.95741 c 0,1.47319 -0.92892,4.76934 -1.87026,6.63628 -1.37697,2.73092 -2.84683,4.7158 -5.26206,7.10577 -4.44754,4.40105 -10.03429,7.37536 -16.15757,8.60208 -1.9934,0.39936 -8.48273,0.70518 -10.44448,0.49222 z m 169.076903,-0.39303 c -5.31247,-0.77382 -11.69218,-4.45271 -15.29398,-8.81933 -2.64544,-3.20719 -4.81272,-7.72001 -5.91539,-12.31735 -0.44673,-1.86253 -0.48091,-4.71832 -0.55666,-46.51218 l -0.0807,-44.52781 10.29656,0.0778 c 9.86517,0.0745 10.32121,0.1 10.88604,0.60697 l 0.58952,0.52917 -0.12864,36.24792 c -0.14854,41.84933 -0.0148,46.57537 1.3966,49.34479 1.18364,2.32254 3.8562,3.82134 7.64593,4.28795 l 2.39739,0.29518 v 10.11381 10.11381 l -1.12448,0.16311 c -4.5837,0.66486 -7.4866,0.77859 -10.11216,0.39615 z m 178.65174,0.10645 -2.84427,-0.0944 0.003,-37.89261 0.003,-37.89262 4.03294,-2.64259 c 8.82708,-5.784 12.13075,-6.74329 23.23901,-6.74794 4.34158,-0.002 5.52305,0.0847 7.27604,0.53305 4.95853,1.26809 9.76686,4.56502 11.78407,8.07999 l 0.69538,1.2117 1.27746,-1.62598 c 2.84726,-3.62413 8.22044,-6.53451 13.69435,-7.41755 2.83856,-0.4579 8.72951,-0.2 11.3388,0.49641 4.278,1.14179 7.883,2.9361 11.80886,5.87763 3.4703,2.60019 6.96325,8.23388 8.4437,13.61858 l 0.7257,2.63962 0.0755,30.52326 c 0.0562,22.72232 -0.003,30.617 -0.22899,30.8901 -0.24998,0.30122 -2.14347,0.36685 -10.58495,0.36685 h -10.28052 l -0.072,-27.97969 c -0.0688,-26.72695 -0.0945,-28.03892 -0.57351,-29.3026 -1.08773,-2.86917 -2.79985,-4.56648 -5.25084,-5.20544 -2.6039,-0.67883 -7.59638,0.87145 -8.8519,2.74872 -1.17163,1.75184 -1.18409,2.10171 -1.10062,30.92256 0.0725,25.0367 0.0419,27.46478 -0.35441,28.06957 -0.42574,0.64975 -0.5162,0.66532 -4.86335,0.83677 -5.95175,0.23473 -12.42042,0.2017 -13.82983,-0.0706 -2.18937,-0.42302 -2.00832,2.23019 -1.92828,-28.26051 0.0532,-20.26403 -0.009,-27.55961 -0.24352,-28.64418 -0.60897,-2.81421 -1.99494,-4.66128 -4.37854,-5.83517 -2.47928,-1.22101 -7.15354,-0.65305 -10.00572,1.21576 l -0.6821,0.44694 v 30.12597 30.12597 l -0.71527,0.46912 c -0.63733,0.41801 -1.4805,0.47122 -7.73906,0.48839 -3.86308,0.0106 -8.30371,-0.0232 -9.86806,-0.0751 z M 54.908617,344.19313 v -41.40729 h 10.84792 10.84792 v 40.89551 c 0,27.68435 -0.0885,41.06085 -0.2739,41.4073 -0.26376,0.49286 -0.66447,0.51177 -10.84792,0.51177 h -10.57402 z m 145.256253,41.14831 c -0.35039,-0.22148 -0.40484,-6.79241 -0.46485,-56.08761 l -0.068,-55.83674 22.02841,2.2e-4 c 22.62336,2.2e-4 26.0396,0.12161 29.68855,1.05485 13.5468,3.46468 23.73966,15.9534 25.82786,31.64535 0.47374,3.55982 0.17338,13.11597 -0.50308,16.00654 -0.78801,3.36712 -1.73958,6.0242 -3.19074,8.90932 -2.06566,4.1069 -5.85327,9.56523 -7.66294,11.04309 -4.9815,4.06811 -10.0655,6.7573 -15.28218,8.08351 -4.46336,1.13471 -8.3267,1.39131 -19.01743,1.26313 l -9.39519,-0.11264 v 17.14498 17.14498 l -10.78177,-0.004 c -6.33196,-0.002 -10.94558,-0.10759 -11.17865,-0.25492 z m 43.25937,-57.78988 c 2.96381,-0.8598 5.42185,-2.26809 7.43001,-4.2569 5.43065,-5.37836 5.68724,-13.0483 0.66236,-19.79881 -3.51351,-4.72008 -9.49852,-6.23215 -23.10747,-5.83796 l -6.28385,0.18202 v 15.19033 15.19032 l 9.85573,-0.10423 c 8.36781,-0.0885 10.09538,-0.17376 11.44322,-0.56477 z m -518.54161,53.80813 c -20.08667,-1.19972 -39.3979,-6.12613 -57.58601,-14.69055 -3.99181,-1.87966 -4.10614,-1.95626 -4.1965,-2.81145 -0.0511,-0.48353 0.29967,-5.13213 0.77947,-10.33023 0.4798,-5.19809 0.79798,-9.52546 0.70707,-9.61638 -0.0909,-0.0909 -2.19785,-0.35464 -4.68208,-0.58606 l -4.51678,-0.42076 0.002,-1.20765 c 0.002,-1.63217 2.06058,-23.33425 2.22894,-23.5026 0.0734,-0.0734 2.17775,0.0646 4.6763,0.30668 2.49856,0.24209 4.61165,0.37134 4.69576,0.28723 0.12951,-0.12951 2.36026,-22.73172 2.40488,-24.36649 0.013,-0.47633 0.37795,-0.66081 2.46266,-1.24488 10.68804,-2.99445 20.9104,-4.83448 31.28229,-5.63081 3.05851,-0.23483 5.68837,-0.46181 5.84412,-0.50439 0.16122,-0.0441 0.41043,-1.51255 0.57863,-3.40952 0.16249,-1.83266 0.3695,-3.45195 0.46003,-3.59843 0.10084,-0.16315 2.08024,-0.26745 5.10992,-0.26926 l 4.94532,-0.003 3.99057,-10.91111 3.99058,-10.91112 -0.7102,-0.08 c -0.39062,-0.044 -4.59324,0.22389 -9.33915,0.59531 -4.74592,0.3714 -8.87123,0.67529 -9.16735,0.67529 -0.40153,0 -0.53841,-0.17251 -0.53841,-0.67857 0,-0.37321 6.39961,-13.82671 14.22136,-29.89667 13.74581,-28.24111 14.24568,-29.21815 14.94896,-29.21935 0.54604,-9.4e-4 0.7276,0.12782 0.7276,0.51598 0,0.39464 -5.65993,25.05943 -9.88988,43.09801 l -0.39366,1.67878 6.92771,-0.16389 c 3.81024,-0.0901 7.79091,-0.23067 8.84593,-0.31229 1.77243,-0.13712 1.91823,-0.10943 1.91823,0.36435 0,0.28202 -1.79093,8.52766 -3.97986,18.32364 -2.18892,9.79599 -3.9277,17.94682 -3.86394,18.11296 0.0638,0.16614 1.11055,0.45117 2.32622,0.6334 2.20262,0.33017 9.22104,1.7964 9.38535,1.96072 0.0475,0.0475 -0.0624,1.69357 -0.24437,3.65783 l -0.3308,3.57139 3.44693,0.88322 c 5.01323,1.28455 13.27114,4.0117 18.59117,6.13967 4.55091,1.82032 13.87415,6.06421 14.54456,6.6206 0.4945,0.4104 0.45197,1.21123 -0.7312,13.76676 -0.58994,6.26025 -1.00911,11.44577 -0.9315,11.52338 0.0776,0.0776 2.0188,0.30635 4.31375,0.50831 5.58928,0.49188 5.36327,0.42563 5.36327,1.57215 0,1.4764 -2.1074,23.46229 -2.26391,23.61881 -0.0766,0.0766 -2.30226,-0.0591 -4.94598,-0.30159 -2.64373,-0.24243 -4.83929,-0.40828 -4.87903,-0.36854 -0.0397,0.0397 -0.50229,4.64841 -1.02789,10.24149 -0.5256,5.59308 -1.03379,10.24513 -1.12931,10.33789 -0.25621,0.24881 -8.54755,2.19238 -13.27054,3.11074 -5.55571,1.08029 -12.41009,2.04615 -17.99167,2.53524 -5.72641,0.50178 -17.85578,0.70946 -23.10933,0.39568 z m 21.52183,-16.2549 c 4.38967,-0.45047 11.34549,-1.47666 15.05588,-2.22119 2.05916,-0.41319 2.28365,-0.5179 2.37286,-1.10675 0.0542,-0.35771 1.0771,-11.00883 2.27313,-23.66914 1.86165,-19.70604 2.12073,-23.06307 1.80025,-23.32672 -0.60664,-0.49907 -9.39146,-3.9119 -13.82022,-5.36904 -7.99686,-2.6311 -17.30384,-4.67279 -26.20273,-5.74813 -4.86649,-0.58807 -18.61843,-0.66232 -23.41562,-0.12644 -6.62011,0.73953 -17.82287,2.80514 -18.93234,3.49083 -0.22582,0.13957 -1.00397,7.39696 -2.52807,23.57806 -1.211,12.85704 -2.20587,23.5123 -2.21081,23.67834 -0.0127,0.42514 5.81862,2.7761 11.80641,4.75992 10.74646,3.56041 21.81222,5.69484 33.95751,6.54991 3.17482,0.22352 15.97111,-0.0922 19.84375,-0.48965 z m 0.1323,-23.82488 c -0.43657,-0.21803 -1.57884,-1.24615 -2.53839,-2.28471 l -1.74464,-1.88829 -2.07042,1.55873 -2.07043,1.55874 -2.3346,0.0924 c -2.13571,0.0845 -2.43623,0.0328 -3.52757,-0.60673 -1.57483,-0.92291 -2.25041,-2.24383 -2.25041,-4.40005 0,-1.14958 0.15895,-1.91094 0.54075,-2.59022 0.69206,-1.23126 8.74939,-7.3488 10.2124,-7.75378 1.27801,-0.35377 4.04957,-0.11216 5.2505,0.45772 0.50987,0.24195 2.34443,2.01895 4.17525,4.04424 4.6391,5.13191 4.54494,4.98081 4.54494,7.29303 0,1.62192 -0.10541,2.08995 -0.64956,2.88409 -1.03758,1.51425 -2.23169,2.03478 -4.66343,2.03288 -1.31581,-10e-4 -2.37242,-0.14736 -2.87439,-0.39805 z m -37.57924,-3.5361 c -0.60566,-0.27512 -1.76688,-1.26783 -2.68658,-2.29673 l -1.61985,-1.81216 -1.01758,0.72308 c -0.55967,0.39769 -1.5348,1.10604 -2.16696,1.5741 -1.0235,0.75784 -1.37752,0.86139 -3.23281,0.94565 -2.44499,0.11103 -4.07486,-0.4997 -5.07482,-1.9016 -0.85728,-1.20186 -0.9937,-4.69069 -0.23102,-5.90786 0.65257,-1.04143 8.41938,-6.97255 9.76072,-7.45377 1.25614,-0.45066 4.66718,-0.28289 5.74814,0.28271 0.91272,0.47757 7.25274,7.35794 8.09411,8.78395 0.75389,1.27775 0.65313,4.489 -0.17657,5.62717 -1.32428,1.81663 -4.99112,2.52824 -7.39678,1.43546 z M 59.706467,296.96147 c -2.08542,-0.98656 -4.32043,-3.20888 -5.5916,-5.55985 l -0.92604,-1.71266 v -5.29723 -5.29723 l 0.87204,-1.77134 c 2.2824,-4.63624 7.35222,-7.48526 12.35713,-6.9442 4.24585,0.459 6.91031,1.97988 9.27558,5.29453 2.00379,2.80805 2.32645,4.08363 2.13984,8.45922 -0.23828,5.58733 -0.96647,7.99405 -3.1282,10.33925 -2.01228,2.18307 -5.51722,3.25979 -10.66847,3.27735 -2.40297,0.008 -2.80046,-0.0641 -4.33028,-0.78784 z"
       id="path69"
       inkscape:connector-curvature="0" />
    <path
       style="fill:#000000;stroke-width:0.26458332"
       d=""
       id="path67"
       inkscape:connector-curvature="0" />
    <path
       style="fill:#000000;stroke-width:0.26458332"
       d=""
       id="path65"
       inkscape:connector-curvature="0" />
  </g>
</svg>
